<?xml version="1.0" encoding="UTF-8"?>
<svg id="Ebene_1" xmlns="http://www.w3.org/2000/svg" version="1.1" viewBox="0 0 566.93 566.93">
  <!-- Generator: Adobe Illustrator 29.6.1, SVG Export Plug-In . SVG Version: 2.1.1 Build 9)  -->
  <polygon fill="currentColor" points="422.87 79.93 144.27 79.93 283.83 149.71 422.87 79.93"/>
  <polygon fill="currentColor" points="79.93 487 260.11 487 79.93 295.75 79.93 487"/>
  <polygon fill="currentColor" points="283.85 183.26 101.1 272.47 284.11 470.21 460.91 271.79 283.85 183.26"/>
  <polygon fill="currentColor" points="79.93 81.3 79.93 249.89 250.35 166.51 79.93 81.3"/>
  <polygon fill="currentColor" points="487 487 487 296.09 308.19 487 487 487"/>
  <path fill="currentColor" d="M0,0v566.93h566.93V0H0ZM517,264.06v252.94H49.93V49.93h467.07v213.37l.49.24-.49.52h0Z"/>
  <polygon fill="currentColor" points="487 248.75 487 81.31 317.33 166.46 487 248.75"/>
</svg>
